<svg data-v-423bf9ae="" xmlns="http://www.w3.org/2000/svg" viewBox="0 0 7034 6645" class="iconLeftSlogan"><!----><!----><!----><g data-v-423bf9ae="" id="9351aa92-25df-46cf-9730-960d83b05dc3" fill="black" transform="matrix(4.92206705261137,0,0,4.92206705261137,6611.1260284660275,-18.211648090945936)"><path d="M8.60 9.80C9.35 9.13 9.73 8.23 9.73 7.34C9.73 6.38 9.30 5.46 8.53 4.80C7.73 4.13 6.64 3.78 5.36 3.78L1.26 3.78C1.11 3.78 0.98 3.91 0.98 4.07L0.98 5.21L3.32 8.71L0.98 8.71L0.98 15.53C0.98 15.68 1.11 15.82 1.26 15.82L5.36 15.82C8.23 15.82 9.73 14.03 9.73 12.26C9.73 11.33 9.32 10.44 8.60 9.80ZM4.12 5.96L5.36 5.96C6.86 5.96 7.55 6.68 7.55 7.34C7.55 7.91 7.03 8.51 5.92 8.67ZM3.16 13.62L3.16 10.89L5.36 10.89C6.86 10.89 7.55 11.61 7.55 12.26C7.55 12.92 6.86 13.62 5.36 13.62ZM18.54 15.54C18.54 15.69 18.38 15.81 18.19 15.81L12.25 15.81C12.10 15.81 11.97 15.69 11.97 15.54L11.97 4.12C11.97 3.93 12.10 3.78 12.25 3.78L13.89 3.78C14.04 3.78 14.15 3.93 14.15 4.12L14.15 13.62L18.19 13.62C18.38 13.62 18.54 13.75 18.54 13.90ZM28 12.05C28 13.22 27.52 14.22 26.64 14.92C25.90 15.50 24.93 15.82 23.90 15.82C22.86 15.82 21.90 15.50 21.15 14.92C20.27 14.22 19.80 13.22 19.80 12.05L19.80 4.07C19.80 3.92 19.92 3.78 20.08 3.78L21.71 3.78C21.87 3.78 21.98 3.92 21.98 4.07L21.98 12.05C21.98 13.58 23.70 13.64 23.90 13.64C24.09 13.64 25.82 13.58 25.82 12.05L25.82 4.07C25.82 3.92 25.94 3.78 26.08 3.78L27.73 3.78C27.87 3.78 28 3.92 28 4.07ZM38.16 15.54C38.16 15.69 38.04 15.82 37.90 15.82L30.24 15.82C30.09 15.82 29.96 15.69 29.96 15.54L29.96 4.06C29.96 3.91 30.09 3.78 30.24 3.78L37.62 3.78C37.77 3.78 37.90 3.91 37.90 4.06L37.90 5.70C37.90 5.85 37.77 5.96 37.62 5.96L32.14 5.96L32.14 8.71L37.34 8.71C37.49 8.71 37.62 8.82 37.62 8.97L37.62 10.61C37.62 10.77 37.49 10.89 37.34 10.89L32.14 10.89L32.14 13.62L37.90 13.62C38.04 13.62 38.16 13.75 38.16 13.90ZM40.12 3.79L44.70 8.37L49.28 3.79L49.28 15.54C49.28 15.69 49.17 15.82 49.01 15.82L47.40 15.82C47.25 15.82 47.12 15.69 47.12 15.54L47.12 8.99L44.70 11.41L42.28 8.99L42.28 15.54C42.28 15.69 42.17 15.82 42.01 15.82L40.39 15.82C40.25 15.82 40.12 15.69 40.12 15.54ZM56.84 15.82C53.52 15.82 50.82 13.12 50.82 9.80C50.82 6.48 53.52 3.78 56.84 3.78C60.16 3.78 62.86 6.48 62.86 9.80C62.86 13.12 60.16 15.82 56.84 15.82ZM56.84 5.96C54.73 5.96 53.00 7.69 53.00 9.80C53.00 11.91 54.73 13.62 56.84 13.62C58.95 13.62 60.66 11.91 60.66 9.80C60.66 7.69 58.95 5.96 56.84 5.96ZM70 15.82C66.68 15.82 63.98 13.12 63.98 9.80C63.98 6.48 66.68 3.78 70 3.78C73.32 3.78 76.02 6.48 76.02 9.80C76.02 13.12 73.32 15.82 70 15.82ZM70 5.96C67.89 5.96 66.16 7.69 66.16 9.80C66.16 11.91 67.89 13.62 70 13.62C72.11 13.62 73.82 11.91 73.82 9.80C73.82 7.69 72.11 5.96 70 5.96ZM85.76 15.89L79.74 9.32L79.74 15.53C79.74 15.68 79.63 15.81 79.48 15.81L77.84 15.81C77.69 15.81 77.56 15.68 77.56 15.53L77.56 3.70L83.58 10.26L83.58 4.06C83.58 3.91 83.71 3.78 83.85 3.78L85.50 3.78C85.64 3.78 85.76 3.91 85.76 4.06Z"></path></g><!----><g data-v-423bf9ae="" id="b37161b5-8550-4168-9356-1e05d52f6cf4" transform="matrix(8.592222086588542,0,0,8.592222086588542,-998.0412227867482,-973.381311364069)" stroke="none" fill="black"><path d="M669.6 164.4c18.6-4.6 30.4 6.1 40.4 25.1 16.9 32.3 36.1 63.5 54.9 94.9 7 11.6 7.8 21.6.6 33.8-36 61.2-71.4 122.6-106.6 184.2-7.9 13.9-11.8 13-21.7.3-21.6-27.7-20.6-51.5-.4-80.5 23.7-34 41.8-71.8 63.1-107.5 6-10.1 5.4-17.8-.4-27.5-19.5-32.6-38.5-65.5-57.1-98.6-12.5-22.3-11.3-23.9 15.2-24.1 2.7-.1 5.6-.1 12-.1zM875.2 477.6c13.3 13.7 10 29.4-1.4 47.5-19.4 30.9-36.7 63.2-54.3 95.2-6.5 11.8-14.8 17.6-28.9 17.6-70.9-.3-141.9 0-212.8.6-16 .1-17.2-3.6-11.2-18.7 13.1-32.6 34.2-43.7 69.3-40.9 41.3 3.4 83.1-.1 124.6.4 11.7.1 18.1-4.2 23.6-14.2 18.3-33.3 37.2-66.2 56.5-99 13-22.1 15-21.8 28.5 1 1.5 2.5 2.9 4.9 6.1 10.5zM708.1 812.8c-5.1 18.4-20.4 23.5-41.7 22.7-36.5-1.2-73.1.1-109.6 1-13.5.3-22.6-3.9-29.7-16.1-35.5-61.4-71.5-122.6-107.7-183.6-8.2-13.8-5.5-16.7 10.5-19 34.8-5.1 55 7.5 70.2 39.3C518 694.5 542 728.9 562.5 765c5.8 10.2 12.8 13.5 24.2 13.2 38-.9 76-1.2 113.9-1 25.6.1 26.3 2 13.5 25.1-1.4 2.5-2.8 5-6 10.5zM334.4 837.3c-18.5 4.8-30.5-5.8-40.6-24.6-17.3-32.1-36.9-63.1-56-94.2-7.1-11.5-8-21.5-1-33.8 35.2-61.6 69.9-123.5 104.4-185.5 7.8-14 11.6-13.2 21.7-.5 21.9 27.5 21.2 51.3 1.4 80.5-23.3 34.3-40.9 72.3-61.8 108.2-5.9 10.2-5.2 17.9.7 27.5 19.9 32.3 39.2 65 58.3 97.9 12.8 22.2 11.6 23.8-14.9 24.3-3 .1-5.9.1-12.2.2zM125.1 526.6c-13.5-13.6-10.4-29.3.8-47.5 19.1-31.1 36-63.6 53.2-95.9 6.4-11.9 14.5-17.8 28.7-17.9 70.9-.5 141.9-1.7 212.8-3.1 16-.3 17.2 3.4 11.4 18.5-12.7 32.8-33.6 44.1-68.8 41.7-41.3-2.9-83.1 1-124.6 1.1-11.7 0-18.1 4.5-23.4 14.5-17.9 33.5-36.4 66.7-55.3 99.6-12.7 22.2-14.7 21.9-28.5-.6-1.6-2.4-3.1-4.9-6.3-10.4zM288.1 189.4c4.9-18.5 20.1-23.7 41.4-23.2 36.5.8 73.1-1 109.6-2.3 13.5-.5 22.7 3.6 29.9 15.8 36.2 61 72.9 121.7 109.9 182.3 8.3 13.7 5.7 16.6-10.3 19.2-34.7 5.5-55.1-6.9-70.7-38.5-18.3-37.1-42.7-71.2-63.7-107.1-5.9-10.1-12.9-13.4-24.3-13-38 1.4-75.9 2.1-113.9 2.4-25.6.2-26.4-1.7-13.8-24.9 1.4-2.6 2.8-5.1 5.9-10.7z"></path><path d="M406.4 273c-41.2.2-82.4 1.8-123.6 1.9-9.2-15.7-26.4-26.3-45.9-26.3-29.4 0-53.3 23.9-53.3 53.3s23.9 53.3 53.3 53.3c18.4 0 34.6-9.3 44.2-23.5 28-1.1 56.1-2.5 83.9-.4 29.3 2.2 42.8-12.5 54.7-34.2 10.5-19.5 8.5-24.2-13.3-24.1zm-169.5 56.8c-2.6 0-5.2-.4-7.6-1-11.7-3.3-20.3-14.1-20.3-26.9 0-15.4 12.5-27.9 27.9-27.9 4.6 0 9 1.1 12.9 3.1 8.9 4.7 15 14 15 24.8 0 15.4-12.5 27.9-27.9 27.9zM284.3 467.2c-11.4-18.9-16.6-19.6-27.4-.7-22.2 38.5-42.9 77.8-65.4 116.1-.4.7-.8 1.4-1.2 2-28.6.8-51.7 24.4-51.7 53.2 0 29.4 23.9 53.3 53.3 53.3s53.3-23.9 53.3-53.3c0-8.6-2.1-16.8-5.7-24 15-27.8 29.1-56.2 47-82.1 16.5-24.2 10.5-43.3-2.2-64.5zm-66 179.4c-3.7 11.1-14.2 19.2-26.5 19.2-15.4 0-27.9-12.5-27.9-27.9 0-11.5 7-21.5 17-25.7 3.3-1.4 7-2.2 10.9-2.2 15.4 0 27.9 12.5 27.9 27.9 0 3-.5 5.9-1.4 8.7zM653.5 308.4c-20.7-37.2-42.8-73.6-63.3-110.9 6.3-8.7 9.9-19.4 9.9-30.9 0-29.4-23.9-53.3-53.3-53.3s-53.3 23.9-53.3 53.3c0 25.9 18.6 47.6 43.2 52.3 16 26.8 32.8 53.1 45.6 81.3 12.2 26.8 31.6 31.5 56.4 31.4 22.2-.1 25.4-4.2 14.8-23.2zM574 173c-2.9 12.3-14 21.5-27.2 21.5-11.9 0-22.2-7.6-26.1-18.1-1.1-3-1.8-6.3-1.8-9.8 0-15.4 12.5-27.9 27.9-27.9 15.4 0 27.9 12.5 27.9 27.9.1 2.2-.2 4.3-.7 6.4zM812.9 317.4c-29.4 0-53.3 23.9-53.3 53.3 0 6.1 1 11.9 2.9 17.3-15.6 28-30.2 56.6-48.5 82.6-17 24-11.3 43.2 1.2 64.5 11.2 19.1 16.4 19.8 27.4 1.1 22.1-37.3 42.8-75.4 65.1-112.5 1.7.2 3.4.2 5.1.2 29.4 0 53.3-23.9 53.3-53.3s-23.8-53.2-53.2-53.2zm7.1 80.2c-2.3.6-4.6.9-7.1.9-15.4 0-27.9-12.5-27.9-27.9 0-5.8 1.8-11.2 4.9-15.7 5-7.4 13.5-12.2 23-12.2 15.4 0 27.9 12.5 27.9 27.9 0 13-8.8 23.9-20.8 27zM769.4 649.7c-17.1 0-32.4 8.2-42.2 20.8-31.5.7-63 2.4-94.2-.4-29.3-2.6-43 12-55.1 33.5-10.8 19.3-8.9 24.1 12.9 24.2 43.8.3 87.6-1 131.4-.4 8.9 17 26.7 28.7 47.2 28.7 29.4 0 53.3-23.9 53.3-53.3 0-29.2-23.9-53.1-53.3-53.1zm0 81.1c-6.9 0-13.2-2.5-18.1-6.7-6-5.1-9.8-12.7-9.8-21.2 0-15.4 12.5-27.9 27.9-27.9h.1c15.4 0 27.9 12.5 27.9 27.9-.1 15.4-12.6 27.9-28 27.9zM466.3 780.9c-16.2-26.4-33.3-52.5-46.4-80.4-12.5-26.6-32-31.1-56.7-30.7-22.1.3-25.3 4.5-14.5 23.3 21.1 36.9 43.6 73 64.5 109.9-6 8.6-9.5 19.1-9.5 30.3 0 29.4 23.9 53.3 53.3 53.3s53.3-23.9 53.3-53.3c0-26.1-19.1-47.9-44-52.4zm-9.3 80.4c-15.4 0-27.9-12.5-27.9-27.9 0-2 .2-4 .6-5.9 2.7-12.6 13.9-22.1 27.3-22.1 11.9 0 22.1 7.5 26.1 18 1.1 3.1 1.8 6.4 1.8 9.9 0 15.5-12.5 28-27.9 28z"></path></g><!----><g data-v-423bf9ae="" id="02df4eeb-a98c-4277-ace4-027a31b8c841" fill="black" transform="matrix(2.1056783964724994,0,0,2.1056783964724994,6615.360173366576,52.98809227196544)"><path d="M0.28 3.71L0.28 3.71Q0.28 3.51 0.66 3.51L0.66 3.51Q0.74 3.51 1.20 3.54Q1.65 3.56 2.20 3.56L2.20 3.56Q2.59 3.56 2.98 3.54Q3.37 3.51 3.40 3.51L3.40 3.51Q3.53 3.51 3.56 3.55Q3.60 3.58 3.60 3.68L3.60 3.68Q3.60 3.77 3.30 3.92Q3.00 4.07 3.00 4.34L3.00 4.34Q3.00 4.47 3.05 4.65Q3.11 4.83 3.28 5.22Q3.44 5.61 3.63 6.03Q3.82 6.45 4.21 7.33Q4.61 8.20 4.98 9.07L4.98 9.07Q5.08 9.30 5.27 9.74Q5.46 10.18 5.58 10.46Q5.70 10.74 5.84 11.05Q5.98 11.37 6.07 11.52Q6.16 11.68 6.20 11.68L6.20 11.68Q6.26 11.68 6.65 10.81Q7.04 9.94 7.35 9.17L7.35 9.17Q7.41 9.04 7.48 8.89Q7.56 8.74 7.59 8.63Q7.63 8.53 7.63 8.41L7.63 8.41Q7.63 8.25 6.79 6.36Q5.95 4.48 5.71 4.21L5.71 4.21Q5.66 4.14 5.60 4.10Q5.54 4.06 5.50 4.02Q5.45 3.99 5.41 3.97Q5.38 3.95 5.32 3.94Q5.26 3.93 5.24 3.93Q5.22 3.93 5.16 3.93Q5.10 3.92 5.08 3.92L5.08 3.92Q4.69 3.88 4.61 3.84Q4.52 3.81 4.52 3.70L4.52 3.70Q4.52 3.50 4.93 3.50L4.93 3.50Q5.01 3.50 5.47 3.53Q5.94 3.56 6.47 3.56L6.47 3.56Q6.50 3.56 6.85 3.53Q7.20 3.50 7.39 3.50L7.39 3.50Q7.81 3.50 7.81 3.61L7.81 3.61Q7.81 3.70 7.66 3.78Q7.50 3.86 7.36 4.00Q7.21 4.13 7.21 4.33L7.21 4.33Q7.21 4.59 7.64 5.57L7.64 5.57Q7.67 5.63 7.83 6.03Q7.99 6.44 8.12 6.71Q8.25 6.99 8.30 6.99L8.30 6.99Q8.41 6.99 8.86 5.76Q9.31 4.54 9.31 4.31L9.31 4.31Q9.31 4.06 9.10 3.96Q8.89 3.85 8.68 3.80Q8.47 3.75 8.47 3.64L8.47 3.64Q8.47 3.49 8.78 3.49L8.78 3.49Q8.86 3.49 9.20 3.50Q9.53 3.51 9.67 3.51L9.67 3.51L9.91 3.51Q10.11 3.51 10.65 3.47L10.65 3.47L10.78 3.47Q10.96 3.47 10.96 3.61Q10.96 3.75 10.70 3.84Q10.43 3.92 10.33 4.02L10.33 4.02Q10.11 4.24 9.94 4.66L9.94 4.66Q9.65 5.38 9.24 6.33L9.24 6.33Q8.82 7.31 8.75 7.50Q8.68 7.70 8.68 7.85L8.68 7.85Q8.68 7.97 9.53 9.87Q10.39 11.77 10.54 11.77L10.54 11.77Q10.71 11.77 12.17 8.24Q13.64 4.70 13.64 4.35L13.64 4.35Q13.64 4.13 13.47 4.01Q13.31 3.89 13.12 3.87Q12.92 3.85 12.76 3.80Q12.60 3.75 12.60 3.64L12.60 3.64Q12.60 3.54 12.64 3.52Q12.68 3.50 12.87 3.50L12.87 3.50Q12.91 3.50 13.19 3.51Q13.47 3.51 13.75 3.51L13.75 3.51Q14 3.51 14.31 3.50Q14.63 3.49 14.99 3.49L14.99 3.49Q15.27 3.49 15.27 3.68L15.27 3.68Q15.27 3.78 15.20 3.84Q15.12 3.89 14.97 3.98Q14.81 4.06 14.70 4.17L14.70 4.17Q14.63 4.24 14.58 4.31Q14.53 4.38 14.48 4.49Q14.42 4.59 14.38 4.66Q14.35 4.73 14.27 4.91Q14.20 5.08 14.15 5.18L14.15 5.18Q13.08 7.59 11.75 10.58L11.75 10.58Q10.68 13.01 10.49 13.41Q10.29 13.82 10.18 13.82L10.18 13.82Q10.11 13.82 10.01 13.64Q9.91 13.47 9.74 13.05Q9.56 12.64 9.53 12.57L9.53 12.57Q9.39 12.26 9.16 11.72Q8.93 11.17 8.77 10.79Q8.61 10.42 8.44 10.02Q8.27 9.63 8.16 9.43Q8.05 9.23 8.01 9.23L8.01 9.23Q7.87 9.23 7.06 11.16Q6.26 13.09 6.20 13.31L6.20 13.31Q6.19 13.37 6.17 13.43Q6.15 13.48 6.13 13.52Q6.12 13.57 6.10 13.61Q6.09 13.65 6.08 13.68Q6.06 13.71 6.05 13.73Q6.05 13.76 6.03 13.78Q6.02 13.80 6.01 13.82Q5.99 13.83 5.98 13.84Q5.96 13.85 5.95 13.85Q5.94 13.86 5.91 13.86L5.91 13.86Q5.78 13.86 5.60 13.46Q5.42 13.06 4.94 11.89Q4.47 10.72 3.98 9.65L3.98 9.65Q3.16 7.87 2.25 5.63L2.25 5.63Q1.99 4.96 1.68 4.57Q1.37 4.19 1.13 4.09Q0.90 3.99 0.70 3.98Q0.50 3.96 0.39 3.92Q0.28 3.88 0.28 3.71ZM22.82 3.65L22.82 3.65Q22.82 3.46 23.21 3.46L23.21 3.46Q23.27 3.46 23.39 3.47Q23.52 3.49 23.59 3.49L23.59 3.49Q23.63 3.49 24.91 3.52Q26.18 3.56 27.01 3.56L27.01 3.56Q27.30 3.56 28.45 3.53Q29.61 3.50 29.81 3.50L29.81 3.50Q30.07 3.50 30.07 3.82L30.07 3.82Q30.07 3.91 29.99 4.38Q29.90 4.84 29.90 5.25L29.90 5.25Q29.90 5.38 29.83 5.47Q29.76 5.56 29.68 5.56L29.68 5.56Q29.47 5.56 29.47 5.26L29.47 5.26Q29.47 4.89 29.23 4.58Q28.99 4.27 28.64 4.26L28.64 4.26Q27.38 4.16 26.71 4.16L26.71 4.16L26.35 4.16Q25.62 4.16 25.50 4.26Q25.38 4.37 25.35 5.01L25.35 5.01Q25.30 6.02 25.30 7.35L25.30 7.35Q25.30 8.05 25.56 8.06L25.56 8.06L25.91 8.06L26.50 8.06L26.94 8.06Q27.78 8.06 28.06 8.01Q28.34 7.95 28.56 7.80L28.56 7.80Q28.83 7.62 28.88 7.28L28.88 7.28Q28.92 7.04 29.08 7.04L29.08 7.04Q29.20 7.04 29.23 7.08Q29.26 7.13 29.26 7.27L29.26 7.27Q29.26 7.36 29.20 7.91Q29.15 8.46 29.15 8.74L29.15 8.74Q29.15 9.00 29.17 9.24Q29.19 9.48 29.19 9.59L29.19 9.59Q29.19 9.94 29.09 9.94L29.09 9.94Q28.88 9.94 28.78 9.60L28.78 9.60Q28.59 9.02 28.43 8.92L28.43 8.92Q28.14 8.72 27.09 8.72L27.09 8.72Q26.67 8.72 26.41 8.72Q26.15 8.72 26.07 8.71Q26.00 8.71 25.95 8.71Q25.90 8.71 25.86 8.71L25.86 8.71Q25.28 8.71 25.28 8.97L25.28 8.97Q25.28 9.38 25.27 9.99Q25.26 10.60 25.26 10.99L25.26 10.99L25.26 11.55Q25.26 12.56 25.59 12.66L25.59 12.66Q25.94 12.77 26.19 12.77L26.19 12.77Q27.24 12.77 28.04 12.67Q28.83 12.57 29.23 12.42Q29.62 12.28 29.89 12.10Q30.16 11.93 30.23 11.78Q30.31 11.63 30.39 11.54Q30.46 11.44 30.55 11.44L30.55 11.44Q30.72 11.44 30.72 11.68L30.72 11.68Q30.72 12.28 30.11 12.89Q29.51 13.51 29.06 13.51L29.06 13.51Q28.06 13.51 26.79 13.44Q25.52 13.37 25.21 13.37L25.21 13.37Q24.82 13.37 24.23 13.43Q23.65 13.50 23.31 13.50L23.31 13.50Q23.02 13.50 23.02 13.36L23.02 13.36Q23.02 13.23 23.02 13.19Q23.02 13.15 23.06 13.12Q23.10 13.09 23.15 13.08Q23.20 13.08 23.33 13.03Q23.46 12.99 23.62 12.92L23.62 12.92Q23.95 12.75 24.06 12.26Q24.16 11.77 24.16 10.21L24.16 10.21L24.16 8.47Q24.16 8.09 24.18 7.29Q24.21 6.50 24.21 6.05L24.21 6.05Q24.21 5.67 24.18 4.77L24.18 4.77Q24.16 4.37 23.83 4.14Q23.49 3.92 23.04 3.91L23.04 3.91Q22.82 3.91 22.82 3.65ZM48.26 3.64L48.26 3.64Q48.26 3.51 48.38 3.49Q48.50 3.47 48.97 3.47L48.97 3.47L50.19 3.47Q50.54 3.47 51.48 3.44Q52.42 3.42 52.92 3.42L52.92 3.42Q53.89 3.42 54.85 3.71Q55.82 4.00 56.63 4.56Q57.44 5.11 57.95 6.00Q58.45 6.89 58.45 7.98L58.45 7.98Q58.45 8.96 58.32 9.68Q58.18 10.40 57.88 10.93Q57.57 11.45 57.26 11.78Q56.95 12.11 56.42 12.56L56.42 12.56Q56.00 12.89 55.20 13.19Q54.40 13.48 53.56 13.48L53.56 13.48Q53.48 13.48 52.14 13.45Q50.79 13.41 50.20 13.41L50.20 13.41Q49.71 13.41 49.29 13.45Q48.87 13.48 48.80 13.48L48.80 13.48Q48.47 13.48 48.47 13.30L48.47 13.30Q48.47 13.19 48.52 13.14Q48.57 13.09 48.73 13.05Q48.89 13.01 48.96 12.98L48.96 12.98Q49.18 12.88 49.37 12.61Q49.56 12.33 49.56 12.07L49.56 12.07Q49.56 11.28 49.57 10.07Q49.57 8.85 49.57 8.27L49.57 8.27Q49.57 7.77 49.57 6.70Q49.56 5.63 49.56 4.72L49.56 4.72Q49.56 4.48 49.33 4.23Q49.10 3.99 48.82 3.98L48.82 3.98Q48.62 3.96 48.53 3.95Q48.44 3.93 48.35 3.86Q48.26 3.78 48.26 3.64ZM50.74 11.47L50.74 11.47Q50.74 11.73 50.74 11.90Q50.75 12.07 50.80 12.21Q50.85 12.35 50.88 12.40Q50.90 12.46 51.04 12.53Q51.18 12.60 51.26 12.62Q51.34 12.64 51.59 12.71Q51.84 12.78 52.01 12.82L52.01 12.82Q52.50 12.96 53.03 12.96L53.03 12.96L53.31 12.96Q54.26 12.96 54.94 12.69Q55.61 12.42 56.22 11.83L56.22 11.83Q57.26 10.84 57.26 8.61L57.26 8.61Q57.26 7.49 56.82 6.58Q56.38 5.67 55.66 5.13Q54.95 4.59 54.12 4.30Q53.30 4.02 52.46 4.02L52.46 4.02Q52.08 4.02 51.90 4.02Q51.73 4.02 51.50 4.05Q51.27 4.09 51.19 4.11Q51.11 4.13 51.00 4.25Q50.89 4.37 50.87 4.45Q50.85 4.54 50.81 4.78Q50.78 5.03 50.78 5.21Q50.78 5.39 50.78 5.80L50.78 5.80Q50.78 6.10 50.76 7.24Q50.75 8.39 50.75 8.48L50.75 8.48Q50.75 9.32 50.74 10.30Q50.74 11.28 50.74 11.47ZM66.68 8.69L66.68 8.69Q66.68 6.34 68.10 4.84Q69.51 3.33 72.10 3.33L72.10 3.33Q73.30 3.33 74.27 3.68Q75.24 4.03 75.80 4.54Q76.36 5.05 76.73 5.71Q77.11 6.37 77.25 6.92Q77.39 7.48 77.39 7.95L77.39 7.95Q77.39 9.86 76.65 11.16Q75.91 12.47 74.70 13.07Q73.49 13.66 71.90 13.66L71.90 13.66Q70.24 13.66 69.03 12.94Q67.82 12.21 67.25 11.10Q66.68 10.00 66.68 8.69ZM67.91 7.98L67.91 7.98Q67.91 8.54 68.07 9.19Q68.22 9.84 68.57 10.54Q68.92 11.23 69.42 11.78Q69.92 12.33 70.68 12.69Q71.44 13.05 72.35 13.05L72.35 13.05Q72.83 13.05 73.35 12.90Q73.88 12.75 74.40 12.45Q74.91 12.14 75.32 11.70Q75.73 11.26 75.98 10.62Q76.24 9.98 76.24 9.24L76.24 9.24Q76.24 6.71 74.91 5.30Q73.58 3.89 71.62 3.89L71.62 3.89Q70.08 3.89 69.00 4.93Q67.91 5.96 67.91 7.98ZM95.27 3.71L95.27 3.71Q95.27 3.50 95.52 3.50L95.52 3.50Q95.61 3.50 95.91 3.53Q96.21 3.56 96.26 3.56L96.26 3.56Q96.47 3.56 96.84 3.54Q97.20 3.53 97.31 3.53L97.31 3.53Q97.58 3.53 97.65 3.72L97.65 3.72Q97.82 4.09 98.25 5.03Q98.69 5.98 98.95 6.54Q99.20 7.10 99.61 7.97Q100.02 8.83 100.27 9.37Q100.52 9.91 100.79 10.46Q101.07 11.00 101.21 11.26Q101.36 11.52 101.40 11.52Q101.44 11.52 101.49 11.47Q101.54 11.42 101.59 11.34Q101.64 11.26 101.68 11.17Q101.71 11.09 101.77 10.96Q101.84 10.82 101.86 10.75L101.86 10.75L103.67 7.03Q103.98 6.40 104.22 5.89Q104.45 5.39 104.59 5.08Q104.73 4.77 104.83 4.55Q104.93 4.33 104.98 4.21Q105.03 4.10 105.05 4.04Q105.07 3.98 105.08 3.94Q105.10 3.91 105.11 3.88Q105.13 3.85 105.16 3.75Q105.20 3.65 105.23 3.62Q105.27 3.58 105.37 3.54Q105.48 3.50 105.64 3.50L105.64 3.50Q105.91 3.50 106.14 3.51Q106.37 3.53 106.85 3.53L106.85 3.53Q107.09 3.53 107.09 3.71L107.09 3.71Q107.09 3.85 107.00 3.91Q106.90 3.98 106.62 4.02L106.62 4.02Q106.27 4.06 106.13 4.37Q105.99 4.68 105.99 5.54L105.99 5.54Q105.99 7.43 106.08 8.97Q106.16 10.50 106.16 10.89L106.16 10.89Q106.16 12.29 106.39 12.68Q106.61 13.06 107.32 13.06L107.32 13.06Q107.42 13.06 107.50 13.13Q107.58 13.20 107.58 13.26L107.58 13.26Q107.58 13.34 107.56 13.38Q107.55 13.43 107.51 13.45Q107.46 13.48 107.42 13.48Q107.38 13.48 107.27 13.48L107.27 13.48Q106.85 13.48 106.44 13.45Q106.04 13.43 105.84 13.43L105.84 13.43Q105.45 13.43 105.03 13.46Q104.61 13.50 104.38 13.50L104.38 13.50Q104.13 13.50 104.13 13.30L104.13 13.30Q104.13 13.17 104.24 13.12Q104.36 13.06 104.50 13.05Q104.65 13.03 104.81 12.87Q104.97 12.71 105.04 12.39L105.04 12.39Q105.10 12.11 105.10 11.49L105.10 11.49Q105.10 11.05 105.08 10.42Q105.06 9.79 105.03 9.19Q105.00 8.60 104.97 8.07Q104.94 7.55 104.93 7.21L104.93 7.21L104.90 6.87Q104.90 6.27 104.78 6.27L104.78 6.27Q104.76 6.27 104.73 6.29Q104.71 6.30 104.69 6.33Q104.66 6.36 104.64 6.38Q104.61 6.41 104.58 6.47Q104.55 6.54 104.52 6.58Q104.50 6.62 104.45 6.70Q104.41 6.78 104.38 6.83Q104.36 6.89 104.31 6.99Q104.26 7.08 104.23 7.15L104.23 7.15L102.28 11.09Q101.95 11.77 101.57 12.56L101.57 12.56Q101.32 13.09 101.26 13.18Q101.21 13.27 101.12 13.27L101.12 13.27Q101.00 13.27 100.91 13.15Q100.83 13.03 100.66 12.63Q100.49 12.22 100.37 11.96L100.37 11.96Q97.80 6.75 97.73 6.65L97.73 6.65Q97.69 6.59 97.65 6.59L97.65 6.59Q97.54 6.59 97.54 7.15L97.54 7.15Q97.52 8.25 97.47 9.31Q97.41 10.37 97.41 10.85L97.41 10.85L97.41 11.48Q97.41 11.84 97.43 12.04Q97.45 12.24 97.55 12.49Q97.64 12.75 97.87 12.89Q98.11 13.03 98.49 13.08L98.49 13.08Q98.56 13.08 98.62 13.13Q98.69 13.17 98.69 13.23L98.69 13.23Q98.69 13.38 98.64 13.43Q98.60 13.48 98.48 13.48L98.48 13.48Q98.20 13.48 97.64 13.45Q97.08 13.43 97.02 13.43L97.02 13.43Q96.99 13.43 96.61 13.45Q96.24 13.47 95.87 13.47L95.87 13.47Q95.76 13.47 95.71 13.45Q95.66 13.44 95.62 13.39Q95.58 13.34 95.58 13.24L95.58 13.24Q95.58 13.13 95.70 13.09Q95.83 13.05 95.99 13.04Q96.15 13.03 96.35 12.82Q96.54 12.60 96.64 12.18L96.64 12.18Q96.71 11.87 96.81 9.74Q96.91 7.62 96.91 6.59L96.91 6.59Q96.91 5.19 96.64 4.66Q96.36 4.13 95.45 3.92L95.45 3.92Q95.27 3.88 95.27 3.71ZM115.26 8.69L115.26 8.69Q115.26 6.34 116.68 4.84Q118.09 3.33 120.68 3.33L120.68 3.33Q121.88 3.33 122.85 3.68Q123.82 4.03 124.38 4.54Q124.94 5.05 125.31 5.71Q125.69 6.37 125.83 6.92Q125.97 7.48 125.97 7.95L125.97 7.95Q125.97 9.86 125.23 11.16Q124.49 12.47 123.28 13.07Q122.07 13.66 120.48 13.66L120.48 13.66Q118.82 13.66 117.61 12.94Q116.40 12.21 115.83 11.10Q115.26 10.00 115.26 8.69ZM116.49 7.98L116.49 7.98Q116.49 8.54 116.65 9.19Q116.80 9.84 117.15 10.54Q117.50 11.23 118.00 11.78Q118.50 12.33 119.26 12.69Q120.02 13.05 120.93 13.05L120.93 13.05Q121.41 13.05 121.93 12.90Q122.46 12.75 122.98 12.45Q123.49 12.14 123.90 11.70Q124.31 11.26 124.57 10.62Q124.82 9.98 124.82 9.24L124.82 9.24Q124.82 6.71 123.49 5.30Q122.16 3.89 120.20 3.89L120.20 3.89Q118.66 3.89 117.58 4.93Q116.49 5.96 116.49 7.98ZM133.87 3.70L133.87 3.70Q133.87 3.47 134.27 3.47L134.27 3.47L136.60 3.47Q136.92 3.47 137.34 3.45Q137.76 3.43 138.00 3.43L138.00 3.43Q139.26 3.43 140.15 4.07Q141.05 4.70 141.05 5.78L141.05 5.78Q141.05 6.50 140.78 7.03Q140.50 7.57 140.18 7.81Q139.85 8.05 139.57 8.22Q139.30 8.40 139.30 8.46L139.30 8.46Q139.30 8.62 140.48 10.27Q141.65 11.91 142.09 12.38L142.09 12.38Q142.62 13.03 143.37 13.03L143.37 13.03Q143.57 13.03 143.57 13.20L143.57 13.20Q143.57 13.41 143.40 13.48Q143.23 13.55 142.53 13.55L142.53 13.55Q141.88 13.55 141.33 13.23L141.33 13.23Q140.63 12.82 138.96 10.09L138.96 10.09Q138.87 9.94 138.82 9.87L138.82 9.87Q138.15 8.78 137.79 8.78L137.79 8.78L137.49 8.78L136.64 8.78Q136.47 8.78 136.44 8.92Q136.40 9.06 136.40 9.77L136.40 9.77Q136.40 10.44 136.40 10.88Q136.40 11.31 136.41 11.43Q136.42 11.55 136.42 11.63Q136.42 11.70 136.42 11.75L136.42 11.75Q136.42 12.32 136.68 12.63Q136.95 12.95 137.28 13.00Q137.61 13.05 137.87 13.11Q138.14 13.17 138.14 13.31L138.14 13.31Q138.14 13.54 137.89 13.54L137.89 13.54Q137.87 13.54 136.92 13.49Q135.97 13.44 135.88 13.44L135.88 13.44Q135.48 13.44 134.92 13.47Q134.36 13.50 134.34 13.50L134.34 13.50Q134.05 13.50 134.05 13.27L134.05 13.27Q134.05 13.12 134.23 13.05Q134.41 12.99 134.64 12.96Q134.86 12.94 135.04 12.66Q135.23 12.38 135.23 11.86L135.23 11.86Q135.23 11.49 135.23 9.90Q135.24 8.30 135.24 7.45L135.24 7.45Q135.24 6.58 135.23 5.86Q135.23 5.14 135.23 5.08L135.23 5.08Q135.23 4.56 135.02 4.29Q134.81 4.02 134.55 3.98Q134.29 3.95 134.08 3.89Q133.87 3.84 133.87 3.70ZM136.40 5.54L136.40 5.94Q136.40 7.38 136.42 7.72Q136.43 8.06 136.51 8.12L136.51 8.12Q136.72 8.25 137.12 8.25L137.12 8.25L137.26 8.25L137.66 8.25Q138.85 8.25 139.36 7.70Q139.87 7.15 139.87 6.30L139.87 6.30Q139.87 5.43 139.20 4.72Q138.52 4.00 137.14 4.00L137.14 4.00Q136.63 4.00 136.51 4.28Q136.40 4.55 136.40 5.54L136.40 5.54ZM150.92 3.65L150.92 3.65Q150.92 3.46 151.31 3.46L151.31 3.46Q151.37 3.46 151.49 3.47Q151.62 3.49 151.69 3.49L151.69 3.49Q151.73 3.49 153.01 3.52Q154.28 3.56 155.11 3.56L155.11 3.56Q155.40 3.56 156.56 3.53Q157.71 3.50 157.91 3.50L157.91 3.50Q158.17 3.50 158.17 3.82L158.17 3.82Q158.17 3.91 158.09 4.38Q158.00 4.84 158.00 5.25L158.00 5.25Q158.00 5.38 157.93 5.47Q157.86 5.56 157.78 5.56L157.78 5.56Q157.57 5.56 157.57 5.26L157.57 5.26Q157.57 4.89 157.33 4.58Q157.09 4.27 156.74 4.26L156.74 4.26Q155.48 4.16 154.81 4.16L154.81 4.16L154.45 4.16Q153.72 4.16 153.60 4.26Q153.48 4.37 153.45 5.01L153.45 5.01Q153.40 6.02 153.40 7.35L153.40 7.35Q153.40 8.05 153.66 8.06L153.66 8.06L154.01 8.06L154.60 8.06L155.04 8.06Q155.88 8.06 156.16 8.01Q156.44 7.95 156.66 7.80L156.66 7.80Q156.93 7.62 156.98 7.28L156.98 7.28Q157.02 7.04 157.18 7.04L157.18 7.04Q157.30 7.04 157.33 7.08Q157.36 7.13 157.36 7.27L157.36 7.27Q157.36 7.36 157.30 7.91Q157.25 8.46 157.25 8.74L157.25 8.74Q157.25 9.00 157.27 9.24Q157.29 9.48 157.29 9.59L157.29 9.59Q157.29 9.94 157.19 9.94L157.19 9.94Q156.98 9.94 156.88 9.60L156.88 9.60Q156.69 9.02 156.53 8.92L156.53 8.92Q156.24 8.72 155.19 8.72L155.19 8.72Q154.77 8.72 154.51 8.72Q154.25 8.72 154.18 8.71Q154.10 8.71 154.05 8.71Q154.00 8.71 153.96 8.71L153.96 8.71Q153.38 8.71 153.38 8.97L153.38 8.97Q153.38 9.38 153.37 9.99Q153.36 10.60 153.36 10.99L153.36 10.99L153.36 11.55Q153.36 12.56 153.69 12.66L153.69 12.66Q154.04 12.77 154.29 12.77L154.29 12.77Q155.34 12.77 156.14 12.67Q156.93 12.57 157.33 12.42Q157.72 12.28 157.99 12.10Q158.26 11.93 158.33 11.78Q158.41 11.63 158.49 11.54Q158.56 11.44 158.65 11.44L158.65 11.44Q158.82 11.44 158.82 11.68L158.82 11.68Q158.82 12.28 158.21 12.89Q157.61 13.51 157.16 13.51L157.16 13.51Q156.16 13.51 154.89 13.44Q153.62 13.37 153.31 13.37L153.31 13.37Q152.92 13.37 152.33 13.43Q151.75 13.50 151.41 13.50L151.41 13.50Q151.12 13.50 151.12 13.36L151.12 13.36Q151.12 13.23 151.12 13.19Q151.12 13.15 151.16 13.12Q151.20 13.09 151.25 13.08Q151.30 13.08 151.43 13.03Q151.56 12.99 151.72 12.92L151.72 12.92Q152.05 12.75 152.16 12.26Q152.26 11.77 152.26 10.21L152.26 10.21L152.26 8.47Q152.26 8.09 152.29 7.29Q152.31 6.50 152.31 6.05L152.31 6.05Q152.31 5.67 152.28 4.77L152.28 4.77Q152.26 4.37 151.93 4.14Q151.59 3.92 151.14 3.91L151.14 3.91Q150.92 3.91 150.92 3.65Z"></path></g></svg>