<svg data-v-423bf9ae="" xmlns="http://www.w3.org/2000/svg" viewBox="0 0 417.2928387120093 60" class="font"><!----><!----><!----><g data-v-423bf9ae="" id="47d4dd50-679d-40b6-9e7e-c47ebc31927c" fill="black" transform="matrix(4.92206705261137,0,0,4.92206705261137,-4.823632788855662,-18.211648090945936)"><path d="M8.60 9.80C9.35 9.13 9.73 8.23 9.73 7.34C9.73 6.38 9.30 5.46 8.53 4.80C7.73 4.13 6.64 3.78 5.36 3.78L1.26 3.78C1.11 3.78 0.98 3.91 0.98 4.07L0.98 5.21L3.32 8.71L0.98 8.71L0.98 15.53C0.98 15.68 1.11 15.82 1.26 15.82L5.36 15.82C8.23 15.82 9.73 14.03 9.73 12.26C9.73 11.33 9.32 10.44 8.60 9.80ZM4.12 5.96L5.36 5.96C6.86 5.96 7.55 6.68 7.55 7.34C7.55 7.91 7.03 8.51 5.92 8.67ZM3.16 13.62L3.16 10.89L5.36 10.89C6.86 10.89 7.55 11.61 7.55 12.26C7.55 12.92 6.86 13.62 5.36 13.62ZM18.54 15.54C18.54 15.69 18.38 15.81 18.19 15.81L12.25 15.81C12.10 15.81 11.97 15.69 11.97 15.54L11.97 4.12C11.97 3.93 12.10 3.78 12.25 3.78L13.89 3.78C14.04 3.78 14.15 3.93 14.15 4.12L14.15 13.62L18.19 13.62C18.38 13.62 18.54 13.75 18.54 13.90ZM28 12.05C28 13.22 27.52 14.22 26.64 14.92C25.90 15.50 24.93 15.82 23.90 15.82C22.86 15.82 21.90 15.50 21.15 14.92C20.27 14.22 19.80 13.22 19.80 12.05L19.80 4.07C19.80 3.92 19.92 3.78 20.08 3.78L21.71 3.78C21.87 3.78 21.98 3.92 21.98 4.07L21.98 12.05C21.98 13.58 23.70 13.64 23.90 13.64C24.09 13.64 25.82 13.58 25.82 12.05L25.82 4.07C25.82 3.92 25.94 3.78 26.08 3.78L27.73 3.78C27.87 3.78 28 3.92 28 4.07ZM38.16 15.54C38.16 15.69 38.04 15.82 37.90 15.82L30.24 15.82C30.09 15.82 29.96 15.69 29.96 15.54L29.96 4.06C29.96 3.91 30.09 3.78 30.24 3.78L37.62 3.78C37.77 3.78 37.90 3.91 37.90 4.06L37.90 5.70C37.90 5.85 37.77 5.96 37.62 5.96L32.14 5.96L32.14 8.71L37.34 8.71C37.49 8.71 37.62 8.82 37.62 8.97L37.62 10.61C37.62 10.77 37.49 10.89 37.34 10.89L32.14 10.89L32.14 13.62L37.90 13.62C38.04 13.62 38.16 13.75 38.16 13.90ZM40.12 3.79L44.70 8.37L49.28 3.79L49.28 15.54C49.28 15.69 49.17 15.82 49.01 15.82L47.40 15.82C47.25 15.82 47.12 15.69 47.12 15.54L47.12 8.99L44.70 11.41L42.28 8.99L42.28 15.54C42.28 15.69 42.17 15.82 42.01 15.82L40.39 15.82C40.25 15.82 40.12 15.69 40.12 15.54ZM56.84 15.82C53.52 15.82 50.82 13.12 50.82 9.80C50.82 6.48 53.52 3.78 56.84 3.78C60.16 3.78 62.86 6.48 62.86 9.80C62.86 13.12 60.16 15.82 56.84 15.82ZM56.84 5.96C54.73 5.96 53.00 7.69 53.00 9.80C53.00 11.91 54.73 13.62 56.84 13.62C58.95 13.62 60.66 11.91 60.66 9.80C60.66 7.69 58.95 5.96 56.84 5.96ZM70 15.82C66.68 15.82 63.98 13.12 63.98 9.80C63.98 6.48 66.68 3.78 70 3.78C73.32 3.78 76.02 6.48 76.02 9.80C76.02 13.12 73.32 15.82 70 15.82ZM70 5.96C67.89 5.96 66.16 7.69 66.16 9.80C66.16 11.91 67.89 13.62 70 13.62C72.11 13.62 73.82 11.91 73.82 9.80C73.82 7.69 72.11 5.96 70 5.96ZM85.76 15.89L79.74 9.32L79.74 15.53C79.74 15.68 79.63 15.81 79.48 15.81L77.84 15.81C77.69 15.81 77.56 15.68 77.56 15.53L77.56 3.70L83.58 10.26L83.58 4.06C83.58 3.91 83.71 3.78 83.85 3.78L85.50 3.78C85.64 3.78 85.76 3.91 85.76 4.06Z"></path></g><!----><!----></svg>